# xmcd CD database file
# 
# Track frame offsets:
# 	150
# 	19302
# 	39875
# 	59022
# 	66650
# 	85257
# 	106267
# 	120045
# 	146735
# 	168262
# 	198785
# 
# Disc length: 2942 seconds
# 
# Submitted via: Nero 5.5.10.20
# 
# Revision: 0
# Processed by: cddbd v1.4PL0 Copyright (c) Steve Scherf et al.
#
DISCID=910b7c0b
DTITLE=Chris Ryden - Notebooks
DYEAR=1900
DGENRE=
TTITLE0=Broken Land
TTITLE1=A Cowboy's Eyes
TTITLE2=The Rhyme
TTITLE3=Calf Creek To Johnny's Ridge
TTITLE4=The Rapture
TTITLE5=The Wedding
TTITLE6=Entertaining Bordom
TTITLE7=Careless (Extended Version)
TTITLE8=Traveling Sorrow
TTITLE9=Annie Belle (Extended Version)
TTITLE10=Lesley's Lullaby
EXTD=
EXTT0=
EXTT1=
EXTT2=
EXTT3=
EXTT4=
EXTT5=
EXTT6=
EXTT7=
EXTT8=
EXTT9=
EXTT10=
PLAYORDER=
